<svg enable-background="new 0 0 128 128" viewBox="0 0 128 128" xmlns="http://www.w3.org/2000/svg"><path d="m51.5 97.4c-5.4 0-9.7 4.4-9.7 9.7 0 5.4 4.4 9.7 9.7 9.7s9.7-4.4 9.7-9.7-4.3-9.7-9.7-9.7zm0 13.9c-2.3 0-4.2-1.9-4.2-4.2s1.9-4.2 4.2-4.2 4.2 1.9 4.2 4.2-1.9 4.2-4.2 4.2zm-31.8-97.9c-.3-1.3-1.4-2.2-2.7-2.2h-14.2c-1.5 0-2.8 1.2-2.8 2.8 0 1.5 1.2 2.8 2.8 2.8h11.9l26.3 75.6c.3 1.3 1.4 2.2 2.7 2.2h73.1v-5.6h-70.8zm84.6 84c-5.4 0-9.7 4.4-9.7 9.7 0 5.4 4.4 9.7 9.7 9.7 5.4 0 9.7-4.4 9.7-9.7.1-5.3-4.3-9.7-9.7-9.7zm0 13.9c-2.3 0-4.2-1.9-4.2-4.2s1.9-4.2 4.2-4.2 4.2 1.9 4.2 4.2-1.8 4.2-4.2 4.2zm-70.9-77.9 2.8 5.6h5.6 79.4s-.5 3.4-2.5 8.3h-80.4l.7 2.8h78.5c-.9 2-2.1 4.2-3.5 6.5-.4.6-.9 1.2-1.4 1.8h-71.5l.7 2.8h67.8c-7 5.6-18.5 8.3-25.6 8.3-5.2 0-36.3 0-39.3 0-.1 0-.2 0-.2 0h.2-.2l2.8 5.6h33.4c16 0 29.1-4.9 36.2-13.9 9.5-12.2 11.1-27.8 11.1-27.8zm76.3 27.8 2.7-2.6c-.8.9-1.7 1.8-2.7 2.6z" fill="#020202"/></svg>